# AST/ASF file generated using VICON BodyLanguage
# -----------------------------------------------
:version 1.10
:name VICON
:units
  mass 1.0
  length 0.45
  angle deg
:documentation
   .ast/.asf automatically generated from VICON data using
   VICON BodyBuilder and BodyLanguage model FoxedUp or BRILLIANT.MOD
:root
   order TX TY TZ RX RY RZ
   axis XYZ
   position 0 0 0  
   orientation 0 0 0 
:bonedata
  begin
     id 1 
     name lhipjoint
     direction 0.78388 -0.462562 0.414208 
     length 3.01181 
     axis 0 0 0  XYZ
  end
  begin
     id 2 
     name lfemur
     direction 0.34202 -0.939693 0  
     length 6.04673  
     axis 0 0 20  XYZ
    dof rx ry rz
    limits (-160.0 20.0)
           (-70.0 70.0)
           (-60.0 70.0)
  end
  begin
     id 3 
     name ltibia
     direction 0.34202 -0.939693 0   
     length 7.211   
     axis 0 0 20   XYZ
    dof rx
    limits (-10.0 170.0)
  end
  begin
     id 4 
     name lfoot
     direction 0.121887 -0.334882 0.934344   
     length 2.13567   
     axis -90 7.62852e-016 20   XYZ
    dof rx rz
    limits (-45.0 90.0)
           (-70.0 20.0)
  end
  begin
     id 5 
     name ltoes
     direction 1.53555e-011 -4.2179e-011 1   
     length 1.05957   
     axis -90 7.62852e-016 20   XYZ
    dof rx
    limits (-90.0 20.0)
  end
  begin
     id 6 
     name rhipjoint
     direction -0.769387 -0.475875 0.426129   
     length 2.92756  
     axis 0 0 0  XYZ 
  end
  begin
     id 7 
     name rfemur
     direction -0.34202 -0.939693 0   
     length 6.35468   
     axis 0 0 -20   XYZ
    dof rx ry rz
    limits (-160.0 20.0)
           (-70.0 70.0)
           (-70.0 60.0)
  end
  begin
     id 8 
     name rtibia
     direction -0.34202 -0.939693 0   
     length 7.37886   
     axis 0 0 -20   XYZ
    dof rx
    limits (-10.0 170.0)
 end
 begin
     id 9 
     name rfoot
     direction -0.101763 -0.279592 0.954711   
     length 2.21478  
     axis -90 -7.62852e-016 -20   XYZ
    dof rx rz
    limits (-45.0 90.0)
           (-20.0 70.0)
  end
  begin
     id 10 
     name rtoes
     direction -1.53494e-011 -4.21851e-011 1   
     length 1.10506   
     axis -90 -7.62852e-016 -20   XYZ
    dof rx
    limits (-90.0 20.0)
  end
  begin
     id 11 
     name lowerback
     direction 0.00747405 0.999267 0.0375481   
     length 2.13259   
     axis 0 0 0   XYZ
    dof rx ry rz
    limits (-20.0 45.0)
           (-30.0 30.0)
           (-30.0 30.0)
  end
  begin
     id 12 
     name upperback
     direction 0.00661626 0.996177 0.0871029   
     length 2.10528   
     axis 0 0 0   XYZ
    dof rx ry rz
    limits (-20.0 45.0)
           (-30.0 30.0)
           (-30.0 30.0)
  end
  begin
     id 13 
     name thorax
     direction 0.00320659 0.997679 0.0680167   
     length 2.11338   
     axis 0 0 0   XYZ
    dof rx ry rz
    limits (-20.0 45.0)
           (-30.0 30.0)
           (-30.0 30.0)
  end
  begin
     id 14 
     name lowerneck
     direction 0.0374841 0.973033 0.227602   
     length 1.42765   
     axis 0 0 0   XYZ
    dof rx ry rz
    limits (-20.0 45.0)
           (-30.0 30.0)
           (-30.0 30.0)
  end
  begin
     id 15 
     name upperneck
     direction 0.00481585 0.989155 -0.146795   
     length 1.47593   
     axis 0 0 0   XYZ
    dof rx ry rz
    limits (-20.0 45.0)
           (-30.0 30.0)
           (-30.0 30.0)
  end
  begin
     id 16
     name head
     direction -0.00292522 0.997206 -0.0746423  
     length 1.48116  
     axis 0 0 0   XYZ
    dof rx ry rz
    limits (-20.0 45.0)
           (-30.0 30.0)
           (-30.0 30.0)
  end
  begin
     id 17 
     name lclavicle
     direction 0.951444 0.305606 0.0368784  
     length 3.01855  
     axis 0 0 0   XYZ
    dof ry rz
    limits (-20.0 10.0)
           (0.0 20.0)
  end
  begin
     id 18 
     name lhumerus
     direction 1 -4.48977e-011 2.61664e-027   
     length 5.52731   
     axis 180 -30 -90   XYZ
    dof rx ry rz
    limits (-60.0 90.0)
           (-90.0 90.0)
           (-90.0 90.0)
  end
  begin
     id 19
     name lradius
     direction 1 -4.48944e-011 8.22157e-027   
     length 3.11059   
     axis 180 -30 -90   XYZ
    dof rx
    limits (-10.0 170.0)
  end
  begin
     id 20
     name lwrist
     direction 1 -4.48976e-011 1.5779e-026   
     length 1.5553   
     axis -1.15221e-014 90 90   XYZ
    dof ry
    limits (-180.0 0.0)
 end
  begin
     id 21 
     name lhand
     direction 1 -4.49025e-011 3.1558e-026   
     length 0.419626   
     axis -2.01367e-014 90 90   XYZ
    dof rx rz
    limits (-90.0 90.0)
           (-45.0 45.0)
  end
  begin
     id 22 
     name lfingers
     direction 1 -4.4904e-011 6.31161e-026   
     length 0.338313   
     axis -4.02734e-014 90 90   XYZ
    dof rx
    limits (0.0 90.0)
  end
  begin
     id 23
     name lthumb
     direction 0.707107 -6.35004e-011 0.707107   
     length 0.485752   
     axis -90 45 2.85299e-015   XYZ
    dof rx rz
    limits (-45.0 45.0)
           (-45.0 45.0)
  end
  begin
     id 24 
     name rclavicle
     direction -0.968876 0.223791 0.105816   
     length 3.04177  
     axis 0 0 0   XYZ 
    dof ry rz
    limits (-10.0 20.0)
           (-20.0 0.0)
  end
  begin
     id 25 
     name rhumerus
     direction -1 -4.48962e-011 -1.01384e-027  
     length 5.25396   
     axis 180 30 90   XYZ
    dof rx ry rz
    limits (-90.0 60.0)
           (-90.0 90.0)
           (-90.0 90.0)
  end
  begin
     id 26 
     name rradius
     direction -1 -4.48955e-011 8.88542e-027   
     length 3.10567   
     axis 180 30 90   XYZ
    dof rx
    limits (-10.0 170.0)
  end
  begin
     id 27 
     name rwrist
     direction -1 -4.48994e-011 1.5779e-026   
     length 1.55283   
     axis -1.15221e-014 -90 -90   XYZ
    dof ry
    limits (-180.0 0.0)
  end
  begin
     id 28
     name rhand
     direction -1 -4.48891e-011 3.1558e-026   
     length 0.498676   
     axis -2.01367e-014 -90 -90   XYZ
    dof rx rz
    limits (-90.0 90.0)
           (-45.0 45.0)
  end
  begin
     id 29
     name rfingers
     direction -1 -4.48972e-011 6.31161e-026   
     length 0.402045   
     axis -4.02734e-014 -90 -90   XYZ
    dof rx
    limits (0.0 90.0)
  end
  begin
     id 30
     name rthumb
     direction -0.707107 -6.34849e-011 0.707107   
     length 0.577259   
     axis -90 -45 -2.85299e-015   XYZ
    dof rx rz
    limits (-45.0 45.0)
           (-45.0 45.0)
  end
:hierarchy
  begin
    root lhipjoint rhipjoint lowerback
    lhipjoint lfemur
    lfemur ltibia
    ltibia lfoot
    lfoot ltoes
    rhipjoint rfemur
    rfemur rtibia
    rtibia rfoot
    rfoot rtoes
    lowerback upperback
    upperback thorax
    thorax lowerneck lclavicle rclavicle
    lowerneck upperneck
    upperneck head
    lclavicle lhumerus
    lhumerus lradius
    lradius lwrist
    lwrist lhand lthumb
    lhand lfingers
    rclavicle rhumerus
    rhumerus rradius
    rradius rwrist
    rwrist rhand rthumb
    rhand rfingers
  end

#!OML:ASF H:\Pregnant\Project 1\Capture day 1\Session 1\femalepreg.ASF
:FULLY-SPECIFIED
:DEGREES
119
root 5.85156 15.2259 21.9183 -146.962 7.91457 -168.279
lowerback -4.11093 -0.674963 -7.68319
upperback -2.03789 -0.308511 -3.39064
thorax 0.235441 0.00524189 0.791314
lowerneck -16.0479 4.38977 1.36738
upperneck 24.2617 5.53467 5.626
head 10.281 3.72106 2.57404
rclavicle 4.92986e-014 6.04305e-014
rhumerus -27.9459 18.9996 -86.9151
rradius 47.4917
rwrist -16.8826
rhand -7.72065 -22.2686
rfingers 7.12502
rthumb 18.1776 -51.4392
lclavicle 4.92986e-014 6.04305e-014
lhumerus 0.969418 -27.3981 72.7165
lradius 24.3351
lwrist 33.4857
lhand -27.9954 -5.27025
lfingers 7.12502
lthumb -1.38145 24.705
rfemur -62.5906 -0.8664 28.9697
rtibia 58.8182
rfoot -7.70717 -5.67857
rtoes -19.8368
lfemur -69.1056 13.6026 -18.2226
ltibia 49.3591
lfoot -11.5256 6.14913
ltoes -14.7754
120
root 5.8463 15.2072 21.8866 -146.732 7.87099 -168.061
lowerback -3.96441 -0.669462 -7.79274
upperback -1.94404 -0.312792 -3.36871
thorax 0.251201 -0.00122773 0.874944
lowerneck -16.2332 4.37081 1.15941
upperneck 24.0633 5.49598 5.72971
head 10.2346 3.6837 2.63609
rclavicle -2.38542e-014 -4.77083e-014
rhumerus -27.5391 19.4571 -86.7822
rradius 48.0584
rwrist -16.9607
rhand -7.85752 -22.3414
rfingers 7.12502
rthumb 18.0459 -51.5243
lclavicle -2.38542e-014 -4.77083e-014
lhumerus 1.75688 -27.3835 72.4397
lradius 24.288
lwrist 33.5302
lhand -28.0519 -5.3023
lfingers 7.12502
lthumb -1.43601 24.6726
rfemur -63.1775 -0.994748 29.2215
rtibia 57.9653
rfoot -7.80951 -6.13767
rtoes -19.9555
lfemur -69.6526 13.896 -18.2464
ltibia 50.0011
lfoot -11.8643 5.97716
ltoes -14.7745
121
root 5.84189 15.1868 21.8547 -146.518 7.81766 -167.852
lowerback -3.8172 -0.660756 -7.90008
upperback -1.84184 -0.313094 -3.3432
thorax 0.27493 -0.00644452 0.96121
lowerneck -16.4243 4.34787 0.953801
upperneck 23.8696 5.45498 5.82317
head 10.1917 3.64471 2.69425
rclavicle 2.70347e-014 5.725e-014
rhumerus -27.105 19.9294 -86.6208
rradius 48.6306
rwrist -17.0533
rhand -7.98047 -22.3782
rfingers 7.12502
rthumb 17.9276 -51.5719
lclavicle 2.70347e-014 5.725e-014
lhumerus 2.52678 -27.3413 72.1877
lradius 24.2642
lwrist 33.5834
lhand -28.086 -5.37227
lfingers 7.12502
lthumb -1.46894 24.6024
rfemur -63.735 -1.13967 29.4761
rtibia 57.1394
rfoot -7.92195 -6.63435
rtoes -19.9844
lfemur -70.1968 14.1802 -18.2708
ltibia 50.6603
lfoot -12.2119 5.79997
ltoes -14.7497
122
root 5.83866 15.1639 21.8234 -146.297 7.74436 -167.66
lowerback -3.67995 -0.651264 -8.00205
upperback -1.74731 -0.311099 -3.32269
thorax 0.296106 -0.00996652 1.03938
lowerneck -16.5959 4.3147 0.761671
upperneck 23.6732 5.40123 5.90834
head 10.1455 3.60084 2.74488
rclavicle -1.11319e-014 -3.81667e-014
rhumerus -26.6756 20.3783 -86.4475
rradius 49.2186
rwrist -17.13
rhand -8.09665 -22.3547
rfingers 7.12502
rthumb 17.8158 -51.5586
lclavicle -1.11319e-014 -3.81667e-014
lhumerus 3.26316 -27.2938 71.9656
lradius 24.2681
lwrist 33.6318
lhand -28.1215 -5.40662
lfingers 7.12502
lthumb -1.50329 24.5678
rfemur -64.3051 -1.30595 29.7307
rtibia 56.3638
rfoot -8.04075 -7.16047
rtoes -19.951
lfemur -70.7768 14.4533 -18.3161
ltibia 51.3362
lfoot -12.557 5.60304
ltoes -14.7223
123
root 5.83643 15.1386 21.7925 -146.072 7.65408 -167.492
lowerback -3.55133 -0.64388 -8.1036
upperback -1.65612 -0.310377 -3.30715
thorax 0.318771 -0.0137863 1.11205
lowerneck -16.7518 4.27579 0.591775
upperneck 23.4667 5.33994 5.97353
head 10.0946 3.55324 2.78288
rclavicle 5.24792e-014 1.11319e-013
rhumerus -26.2491 20.7964 -86.271
rradius 49.8201
rwrist -17.1783
rhand -8.22207 -22.2514
rfingers 7.12502
rthumb 17.6952 -51.4663
lclavicle 5.24792e-014 1.11319e-013
lhumerus 3.97034 -27.2207 71.7731
lradius 24.2954
lwrist 33.6592
lhand -28.1507 -5.39024
lfingers 7.12502
lthumb -1.53148 24.584
rfemur -64.891 -1.49561 29.9809
rtibia 55.6522
rfoot -8.15797 -7.70067
rtoes -19.9028
lfemur -71.3862 14.7136 -18.3871
ltibia 52.0274
lfoot -12.9031 5.38928
ltoes -14.6858
124
root 5.83511 15.1108 21.7624 -145.845 7.54706 -167.348
lowerback -3.42662 -0.639841 -8.20518
upperback -1.56726 -0.313079 -3.29639
thorax 0.341519 -0.0189798 1.17963
lowerneck -16.8938 4.23377 0.438128
upperneck 23.248 5.27451 6.02543
head 10.0382 3.50363 2.81202
rclavicle -2.54444e-014 -4.45278e-014
rhumerus -25.8232 21.1882 -86.0945
rradius 50.4332
rwrist -17.1996
rhand -8.35555 -22.0934
rfingers 7.12502
rthumb 17.5667 -51.3198
lclavicle -2.54444e-014 -4.45278e-014
lhumerus 4.68371 -27.1742 71.5768
lradius 24.3408
lwrist 33.7226
lhand -28.1688 -5.32125
lfingers 7.12502
lthumb -1.54896 24.6529
rfemur -65.4971 -1.70988 30.2211
rtibia 55.0207
rfoot -8.27971 -8.23298
rtoes -19.8244
lfemur -72.0251 14.9586 -18.4854
ltibia 52.7325
lfoot -13.2475 5.16007
ltoes -14.6441
